<svg id="Calque_2" data-name="Calque 2" xmlns="http://www.w3.org/2000/svg" width="5.64mm" height="4.17mm" viewBox="0 0 16 11.83"><title>input-mail</title><path d="M344.73,510.59H331.09a1.18,1.18,0,0,0-1.18,1.18v9.46a1.18,1.18,0,0,0,1.18,1.18h13.64a1.18,1.18,0,0,0,1.18-1.18v-9.46A1.18,1.18,0,0,0,344.73,510.59Zm-.31.69-6.54,5.14-6.65-5.14ZM331,521.71l3.39-4.06a.35.35,0,1,0-.53-.45l-3.29,3.93v-9.36s0-.06,0-.08l7.06,5.44a.34.34,0,0,0,.21.08.37.37,0,0,0,.22-.08l7.07-5.55a.41.41,0,0,1,0,.19v9.48l-3.38-4a.34.34,0,0,0-.49,0,.35.35,0,0,0,0,.49l3.4,4.07H331Z" transform="translate(-329.91 -510.59)"/></svg>