<svg id="Isolation_Mode" data-name="Isolation Mode" xmlns="http://www.w3.org/2000/svg" width="4.94mm" height="5.9mm" viewBox="0 0 14 16.71"><title>input-name</title><path d="M230.46,536.78h-1.35v-3.15a2.26,2.26,0,0,0-2.26-2.25h-6.78a2.25,2.25,0,0,0-2.25,2.25v3.15h-1.36v-3.15a3.61,3.61,0,0,1,3.61-3.61h6.78a3.61,3.61,0,0,1,3.61,3.61Z" transform="translate(-216.46 -520.06)"/><path d="M223.46,529.17a4.56,4.56,0,1,1,4.55-4.55A4.55,4.55,0,0,1,223.46,529.17Zm0-7.75a3.2,3.2,0,1,0,3.2,3.2A3.2,3.2,0,0,0,223.46,521.42Z" transform="translate(-216.46 -520.06)"/></svg>