<svg id="Calque_2" data-name="Calque 2" xmlns="http://www.w3.org/2000/svg" width="12.6" height="21.85" viewBox="0 0 12.6 21.85"><title>input-phone</title><path d="M10.87,0H1.74A1.74,1.74,0,0,0,0,1.74V20.12a1.73,1.73,0,0,0,1.74,1.73h9.13a1.75,1.75,0,0,0,1.73-1.73V1.74A1.74,1.74,0,0,0,10.87,0ZM.87,1.68A.85.85,0,0,1,1.74.86h0v0h9.13a.85.85,0,0,1,.84.84V16.29H.87ZM11.73,20.12a.84.84,0,0,1-.81.86H1.74a.83.83,0,0,1-.84-.84V17.21H11.73Z"/><path d="M5.29,19.42a.49.49,0,0,0,.24,0H7.07a.44.44,0,1,0,.24-.84.49.49,0,0,0-.24,0H5.53a.45.45,0,0,0-.54.3A.44.44,0,0,0,5.29,19.42Z"/></svg>