<svg id="Isolation_Mode" data-name="Isolation Mode" xmlns="http://www.w3.org/2000/svg" width="10.23mm" height="12.92mm" viewBox="0 0 29 36.63">
  <defs>
    <style>
      .cls-1 {
        fill: #acb4bb;
      }
    </style>
  </defs>
  <title>hand</title>
  <g>
    <path class="cls-1" d="M18.31,2.64a6.28,6.28,0,0,0-.92-1l-.84.93a5,5,0,0,1,.74.83Z"/>
    <path class="cls-1" d="M16.26.8A6.23,6.23,0,0,0,15,.26l-.36,1.2a5,5,0,0,1,1,.43Z"/>
    <path class="cls-1" d="M13.2,1.25h.34L13.62,0H13.2a6.3,6.3,0,0,0-1,.07l.19,1.23A5,5,0,0,1,13.2,1.25Z"/>
    <path class="cls-1" d="M18.13,5.4l1.23-.21A6.22,6.22,0,0,0,19,3.85l-1.15.48A5,5,0,0,1,18.13,5.4Z"/>
    <rect class="cls-1" x="18.2" y="9.03" width="1.25" height="1.25"/>
    <path class="cls-1" d="M11.37,1.6,10.91.44a6.23,6.23,0,0,0-1.22.65l.7,1A5,5,0,0,1,11.37,1.6Z"/>
    <rect class="cls-1" x="6.96" y="7.02" width="1.25" height="1.25"/>
    <rect class="cls-1" x="6.96" y="9.52" width="1.25" height="1.25"/>
    <rect class="cls-1" x="18.2" y="6.53" width="1.25" height="1.25"/>
    <path class="cls-1" d="M8.44,4.74,7.25,4.37A6.22,6.22,0,0,0,7,5.73l1.24.1A5,5,0,0,1,8.44,4.74Z"/>
    <path class="cls-1" d="M9.55,2.84,8.63,2A6.27,6.27,0,0,0,7.81,3.1l1.08.63A5,5,0,0,1,9.55,2.84Z"/>
    <path class="cls-1" d="M29,17.58a2.79,2.79,0,0,0-2.75-2.81h-.08a3,3,0,0,0-1.7.58,2.85,2.85,0,0,0-4.11-1.61,3.08,3.08,0,0,0-2.82-1.9,2.42,2.42,0,0,0-1.34.38V6.17a3,3,0,0,0-5.93,0V20.65L8.19,18.54a2.74,2.74,0,0,0-3.89,0l-.06.07v0a2.77,2.77,0,0,0,0,3.85l7,9.16,0,0c.33.43.63.87.91,1.29,1.27,1.88,2.47,3.65,6,3.65,7.44,0,10.76-1.17,10.76-8.12V27.19C29,24.74,29,19.75,29,17.58Zm-1.25,9.61v1.32c0,5.92-2.26,6.87-9.51,6.87-2.91,0-3.79-1.3-5-3.1-.3-.45-.62-.92-1-1.4l0,0-7-9.16-.05-.06a1.52,1.52,0,0,1-.45-1.08,1.5,1.5,0,0,1,.44-1.07l.06-.07h0a1.49,1.49,0,0,1,2.09,0l3.14,3.2a.62.62,0,0,0,1.07-.44v-16a1.72,1.72,0,0,1,3.43,0V19.46a.62.62,0,0,0,1.25,0V14.1c.35-.64.7-1,1.34-1a1.78,1.78,0,0,1,1.78,1.72v4.64a.62.62,0,0,0,1.25,0V15.22a1.43,1.43,0,0,1,1.21-.6,1.63,1.63,0,0,1,1.6,1.72v3.11a.62.62,0,0,0,1.25,0V17.05a1.87,1.87,0,0,1,1.55-1h.08a1.54,1.54,0,0,1,1.5,1.56C27.75,19.75,27.75,24.74,27.75,27.19Z"/>
    <path class="cls-1" d="M20.88,6.66H23.1v.62c0,.52.36.71.79.44l1.89-1.19a.54.54,0,0,0,0-1L23.9,4.35c-.44-.27-.79-.08-.79.44v.62H20.88a.62.62,0,0,0,0,1.25Z"/>
    <path class="cls-1" d="M5.89,7a.62.62,0,0,0,0-1.25H3V5.1c0-.52-.36-.71-.79-.44L.33,5.85a.54.54,0,0,0,0,1L2.21,8c.44.27.79.08.79-.44V7H5.89Z"/>
  </g>
</svg>
